<?xml version="1.0" encoding="utf-8"?>
<!-- Generator: Adobe Illustrator 24.2.1, SVG Export Plug-In . SVG Version: 6.00 Build 0)  -->
<svg version="1.1" id="Layer_1" xmlns="http://www.w3.org/2000/svg" xmlns:xlink="http://www.w3.org/1999/xlink" x="0px" y="0px"
	 viewBox="0 0 256 256" style="enable-background:new 0 0 256 256;" xml:space="preserve">
<style type="text/css">
	.st0{fill:#EEECF6;}
	.st1{fill:#FFFFFF;}
	.st2{fill:#5F56FD;}
</style>
<rect class="st0" width="256" height="256"/>
<path class="st1" d="M47.4,116.6L47.4,116.6L47.4,116.6v21.1l0,0l0,0c-4.9,0-8.9-4-8.9-8.9v-3.3C38.5,120.6,42.5,116.6,47.4,116.6z"
	/>
<path id="Layer_1-3" class="st2" d="M246.9,151.7c-0.9-23.6-5.6-46.8-13.9-68.8c-5.2-17.3-13.6-33.5-24.5-47.9
	c-14-17.9-36-27.6-58.6-25.7C110.3,10.7,72,22.8,39,44.5c-16.8,11-27.6,29.1-29.1,49.1c-0.2,0.6-0.4,1.2-0.8,1.8v19.2
	c1.4,8.1,2.5,16.3,4.3,24.3c5,26,14.4,50.9,28,73.6c11.8,20.2,33.1,32.9,56.5,33.8c1.1,0.1,2.2,0.4,3.2,0.7h8.3
	c8-1.1,16.2-1.8,24.1-3.4c28.3-4.8,55.4-14.9,80-29.6C235,200.8,247.9,177,246.9,151.7z"/>
<rect x="114.7" y="179.2" class="st0" width="26.6" height="7.4"/>
<path class="st1" d="M96.3,76.8h63.4c20.7,0,37.5,16.8,37.5,37.5v27.4c0,20.7-16.8,37.5-37.5,37.5H96.3c-20.7,0-37.5-16.8-37.5-37.5
	v-27.4C58.8,93.6,75.6,76.8,96.3,76.8z"/>
<path class="st0" d="M159.7,76.8h-5.5c20.7,0,37.5,16.8,37.5,37.5l0,0v27.4c0,20.7-16.8,37.5-37.5,37.5h5.5
	c20.7,0,37.5-16.8,37.5-37.5v-27.4C197.2,93.6,180.4,76.8,159.7,76.8z"/>
<path class="st0" d="M160.6,101.5H99.1c-11.4,0-20.7,9.3-20.7,20.7l0,0v11.6c0,11.4,9.3,20.7,20.7,20.7h31.7v6.5
	c0,0.9,0.7,1.6,1.6,1.6c0.1,0,0.3,0,0.4-0.1l32.2-8.5c9.5-2.1,16.3-10.5,16.3-20.2v-11.6C181.3,110.8,172.1,101.5,160.6,101.5
	C160.6,101.5,160.6,101.5,160.6,101.5z"/>
<circle class="st2" cx="105" cy="128" r="8.2"/>
<circle class="st2" cx="153.6" cy="128" r="8.2"/>
<path class="st0" d="M197.2,135.4L197.2,135.4L197.2,135.4v-21.1l0,0l0,0c4.9,0,8.9,4,8.9,8.9v3.3
	C206.1,131.4,202.1,135.4,197.2,135.4z"/>
<path class="st1" d="M58.8,114.3L58.8,114.3L58.8,114.3v21.1l0,0l0,0c-4.9,0-8.9-4-8.9-8.9v-3.3C49.9,118.3,53.9,114.3,58.8,114.3z"
	/>
<path class="st1" d="M159.7,186.6H96.3c-20.7,0-37.5,16.8-37.5,37.5c0,0,0,0,0,0v8.1c11.2,8.6,24.9,13.6,39,14.1
	c1.1,0.2,2.2,0.4,3.2,0.7h8.3c8-1.1,16.2-1.8,24.1-3.4c22.2-3.8,43.7-10.8,63.8-20.8C196.4,202.6,179.9,186.6,159.7,186.6z"/>
<path class="st0" d="M128,217l26-22l-64,31h40l-30.8,20.5c0.6,0.1,1.2,0.2,1.8,0.4h4.8l59.2-30H128z"/>
</svg>
